# xmcd
#
# Track frame offsets:
#	150
#	13377
#	25710
#	37827
#	50075
#	62960
#	72687
#	87742
#	98292
#	112025
#	123275
#	133200
#	143757
#	155550
#	166027
#	178080
#	189787
#	201462
#	213087
#	225920
#
# Disc length: 3173 seconds
#
# Revision: 4
# Processed by: cddbd v1.5.2PL0 Copyright (c) Steve Scherf et al.
# Submitted via: audiograbber 1.83.01
#
DISCID=190c6314
DTITLE=Various Artist - 1965 - Only Country - 1969
DYEAR=1995
DGENRE=Oldies
TTITLE0=David Houston - Almost Persuaded
TTITLE1=Bill Anderson and Jan Howard - For Loving You
TTITLE2=Loretta Lynn - Blue Kentucky Girl
TTITLE3=Merle Haggard - Okie From Muskogee
TTITLE4=Sonny James - Since I Met You Baby
TTITLE5=Jack Greene and Jeannie Seely - Wish I Didn't Have To Miss You
TTITLE6=Roy Clark - Yesterday When I Was Young
TTITLE7=Statler Brothers - Flowers On The Wall
TTITLE8=Tom T. Hall - A Week In A Country Jail
TTITLE9=Kitty Wells - You Don't Hear
TTITLE10=Buck Owens - I've Got A Tiger By The Tail
TTITLE11=Johnny Cash - Daddy Sang Bass
TTITLE12=Henson Cargill - Skip A Rope
TTITLE13=Warner Mack - The Bridge Washed Out
TTITLE14=Mel Tillis - Who's Julie
TTITLE15=Jerry Lee Lewis - What's Made Milwaukee Famous (Has Made A Loser Out O
TTITLE15=f Me)
TTITLE16=Jack Greene - There Goes My Everything
TTITLE17=Wilburn Brothers - Hurt Her Once For Me
TTITLE18=Conway Twitty - Next In Line
TTITLE19=Glen Campbell - Galveston
EXTD=
EXTT0=
EXTT1=
EXTT2=
EXTT3=
EXTT4=
EXTT5=
EXTT6=
EXTT7=
EXTT8=
EXTT9=
EXTT10=
EXTT11=
EXTT12=
EXTT13=
EXTT14=
EXTT15=
EXTT16=
EXTT17=
EXTT18=
EXTT19=
PLAYORDER=
